<svg width="100" height="84" viewBox="0 0 100 84" fill="none" xmlns="http://www.w3.org/2000/svg">
<path fill-rule="evenodd" clip-rule="evenodd" d="M46.4221 54.6829L2.21094 32.5773L5.78865 25.4219L49.9998 47.5274L94.2109 25.4219L97.7887 32.5773L53.5775 54.6829C51.3253 55.809 48.6743 55.809 46.4221 54.6829Z" fill="url(#paint0_linear_678_1644)"/>
<path fill-rule="evenodd" clip-rule="evenodd" d="M84 8H16C11.5817 8 8 11.5817 8 16V68C8 72.4183 11.5817 76 16 76H84C88.4183 76 92 72.4183 92 68V16C92 11.5817 88.4183 8 84 8ZM16 0C7.16344 0 0 7.16344 0 16V68C0 76.8366 7.16345 84 16 84H84C92.8366 84 100 76.8366 100 68V16C100 7.16344 92.8366 0 84 0H16Z" fill="white"/>
<defs>
<linearGradient id="paint0_linear_678_1644" x1="83.4998" y1="51.9996" x2="3.99975" y2="5.99959" gradientUnits="userSpaceOnUse">
<stop stop-color="white"/>
<stop offset="1" stop-color="white" stop-opacity="0"/>
</linearGradient>
</defs>
</svg>
