<svg width="100" height="86" viewBox="0 0 100 86" fill="none" xmlns="http://www.w3.org/2000/svg">
<path fill-rule="evenodd" clip-rule="evenodd" d="M100 85.8652H0V77.8652H100V85.8652Z" fill="white"/>
<path fill-rule="evenodd" clip-rule="evenodd" d="M65 15.1776L35 8.00367L35 77.8651H65V15.1776ZM36.8606 0.223035C31.8316 -0.979543 27 2.83291 27 8.00366V77.8651C27 82.2833 30.5817 85.8651 35 85.8651H65C69.4183 85.8651 73 82.2833 73 77.8651V15.1776C73 11.476 70.4606 8.25783 66.8606 7.39695L36.8606 0.223035Z" fill="url(#paint0_linear_678_1590)"/>
<path fill-rule="evenodd" clip-rule="evenodd" d="M87 50.1059L73 48.7059L73 77.866H87V50.1059ZM73.796 40.7456C69.0865 40.2746 65 43.9729 65 48.7059V77.866C65 82.2842 68.5817 85.866 73 85.866H87C91.4183 85.866 95 82.2842 95 77.866V50.1059C95 45.9958 91.8856 42.5545 87.796 42.1456L73.796 40.7456Z" fill="white"/>
<path fill-rule="evenodd" clip-rule="evenodd" d="M27 49.0033L13 50.8699L13 77.8658H27L27 49.0033ZM11.9427 42.9401C7.96824 43.47 5 46.8603 5 50.8699V77.8658C5 82.2841 8.58172 85.8658 13 85.8658H27C31.4183 85.8658 35 82.2841 35 77.8658V49.0033C35 44.165 30.7386 40.434 25.9427 41.0735L11.9427 42.9401Z" fill="url(#paint1_linear_678_1590)"/>
<defs>
<linearGradient id="paint0_linear_678_1590" x1="35.5" y1="43.8651" x2="18" y2="-16.6349" gradientUnits="userSpaceOnUse">
<stop offset="0.0001" stop-color="white"/>
<stop offset="1" stop-color="white" stop-opacity="0"/>
</linearGradient>
<linearGradient id="paint1_linear_678_1590" x1="29.5" y1="79" x2="-0.5" y2="29.5" gradientUnits="userSpaceOnUse">
<stop stop-color="white"/>
<stop offset="1" stop-color="white" stop-opacity="0"/>
</linearGradient>
</defs>
</svg>
