<svg width="26" height="24" viewBox="0 0 26 24" fill="none" xmlns="http://www.w3.org/2000/svg">
<path d="M26 1.90735e-06L21.2727 1.49408e-06L21.2727 14.4L26 14.4L26 1.90735e-06ZM-9.63183e-07 13.2C-1.07911e-06 14.526 1.05773 15.6 2.36364 15.6L9.82682 15.6L8.69818 21.084C8.67455 21.204 8.65682 21.33 8.65682 21.462C8.65682 21.96 8.85773 22.41 9.17682 22.734L10.4355 24L18.2177 16.098C18.6432 15.66 18.9091 15.06 18.9091 14.4L18.9091 2.4C18.9091 1.074 17.8514 1.19497e-06 16.5455 1.08081e-06L5.90909 1.50945e-07C4.92818 6.51917e-08 4.08909 0.605999 3.73455 1.464L0.171363 9.924C0.0649998 10.2 -7.26617e-07 10.494 -7.53368e-07 10.8L-9.54266e-07 13.098L0.0118189 13.11L-9.63183e-07 13.2Z" fill="#C4C4C4"/>
</svg>
