<svg width="100" height="100" viewBox="0 0 100 100" fill="none" xmlns="http://www.w3.org/2000/svg">
<path fill-rule="evenodd" clip-rule="evenodd" d="M37.2275 85.2687C38.2625 85.6436 39.3891 85.0472 39.6063 83.968C39.8644 82.6855 39.9999 81.3586 39.9999 80C39.9999 68.9543 31.0456 60 19.9999 60C18.6414 60 17.3145 60.1355 16.032 60.3936C14.9528 60.6108 14.3564 61.7374 14.7313 62.7724C18.5114 73.2083 26.7916 81.4885 37.2275 85.2687ZM19.6787 34.0394C18.0302 34.4888 16.5959 32.8556 17.4458 31.3733C23.912 20.0966 36.0689 12.5 50 12.5C63.9312 12.5 76.0881 20.0966 82.5542 31.3734C83.4041 32.8556 81.9698 34.4888 80.3214 34.0394C70.6612 31.4058 60.4947 30 49.9999 30C39.5051 30 29.3387 31.4058 19.6787 34.0394ZM85.2687 62.7724C85.6436 61.7374 85.0472 60.6109 83.968 60.3936C82.6855 60.1355 81.3585 60 79.9999 60C68.9542 60 59.9999 68.9543 59.9999 80C59.9999 81.3586 60.1354 82.6855 60.3935 83.9681C60.6107 85.0472 61.7373 85.6436 62.7723 85.2687C73.2083 81.4887 81.4886 73.2084 85.2687 62.7724ZM100 50C100 77.6142 77.6142 100 50 100C22.3858 100 0 77.6142 0 50C0 22.3858 22.3858 0 50 0C77.6142 0 100 22.3858 100 50Z" fill="url(#paint0_linear_678_4272)"/>
<defs>
<linearGradient id="paint0_linear_678_4272" x1="83.5" y1="14.5" x2="-9.49999" y2="144.5" gradientUnits="userSpaceOnUse">
<stop stop-color="white"/>
<stop offset="1" stop-color="white" stop-opacity="0"/>
</linearGradient>
</defs>
</svg>
