<svg width="101" height="100" viewBox="0 0 101 100" fill="none" xmlns="http://www.w3.org/2000/svg">
<path fill-rule="evenodd" clip-rule="evenodd" d="M51.4539 66.3408C57.8523 69.1037 64.9312 69.8885 71.7794 68.5943C78.6277 67.3001 84.9319 63.986 89.8808 59.0786C94.7673 54.2084 98.0806 47.9844 99.3924 41.2112C100.704 34.438 99.9541 27.427 97.2391 21.0846C96.9966 20.5071 96.6149 19.9985 96.1283 19.6041C95.6416 19.2097 95.065 18.9418 94.4497 18.8242C93.83 18.7028 93.19 18.7359 92.5861 18.9204C91.9822 19.1049 91.433 19.4353 90.987 19.8822L72.2785 38.5907L63.1888 36.8112L61.4093 27.7215L80.1178 9.01305C80.5647 8.56701 80.8951 8.01782 81.0796 7.41392C81.2641 6.81002 81.2972 6.16999 81.1758 5.5503C81.0582 4.93504 80.7903 4.35841 80.3959 3.87174C80.0015 3.38507 79.4929 3.00345 78.9154 2.76087C72.5306 0.0461452 65.4775 -0.688017 58.6705 0.653551C51.8634 1.99512 45.6163 5.35055 40.739 10.2849C35.8617 15.2192 32.5791 21.5049 31.3168 28.327C30.0544 35.1492 30.8705 42.1933 33.6592 48.5461L4.70678 73.5549L4.5144 73.7472C3.08353 75.1726 1.94817 76.8665 1.17348 78.7317C0.398786 80.5969 0 82.5967 0 84.6164C0 86.6361 0.398786 88.6359 1.17348 90.5011C1.94817 92.3663 3.08353 94.0602 4.5144 95.4856C5.93979 96.9165 7.63368 98.0518 9.49888 98.8265C11.3641 99.6012 13.3639 100 15.3836 100C17.4033 100 19.4031 99.6012 21.2683 98.8265C23.1335 98.0518 24.8274 96.9165 26.2528 95.4856C26.2673 95.471 26.2863 95.4565 26.307 95.4406C26.3547 95.404 26.4116 95.3603 26.4452 95.2932L51.4539 66.3408ZM10.157 79.4184C9.47383 80.0998 8.93169 80.9092 8.56157 81.8003C8.19084 82.6929 8 83.6499 8 84.6164C8 85.5829 8.19084 86.54 8.56157 87.4326C8.9323 88.3252 9.47563 89.1358 10.1604 89.8179L10.1713 89.8287L10.1821 89.8396C10.8642 90.5244 11.6748 91.0677 12.5674 91.4384C13.46 91.8092 14.417 92 15.3836 92C16.3501 92 17.3071 91.8092 18.1997 91.4384C19.0908 91.0683 19.9002 90.5262 20.5816 89.8431L49.2366 56.6694L54.6253 58.9963C59.5577 61.1261 65.0147 61.7311 70.2939 60.7334C75.5697 59.7364 80.4268 57.1842 84.2407 53.4051C87.9895 49.6658 90.5316 44.8886 91.5384 39.6901C92.1291 36.6397 92.1754 33.5264 91.6921 30.4908L74.9227 47.2602L56.3715 43.6285L52.7398 25.0773L69.495 8.32206C66.4322 7.84135 63.2922 7.89657 60.2174 8.50257C54.983 9.53419 50.1792 12.1144 46.4287 15.9088C42.6782 19.7031 40.154 24.5366 39.1832 29.7826C38.2125 35.0287 38.84 40.4454 40.9845 45.3305L43.3587 50.7391L10.157 79.4184ZM21.4514 89.0823C21.4513 89.0825 21.4426 89.0892 21.4228 89.1046C21.4408 89.0905 21.4516 89.0821 21.4514 89.0823Z" fill="url(#paint0_linear_678_4250)"/>
<defs>
<linearGradient id="paint0_linear_678_4250" x1="91" y1="24" x2="43" y2="148.5" gradientUnits="userSpaceOnUse">
<stop stop-color="white"/>
<stop offset="1" stop-color="white" stop-opacity="0"/>
</linearGradient>
</defs>
</svg>
