<svg width="100" height="80" viewBox="0 0 100 80" fill="none" xmlns="http://www.w3.org/2000/svg">
<path fill-rule="evenodd" clip-rule="evenodd" d="M30 19H0V11H30V19Z" fill="white"/>
<path fill-rule="evenodd" clip-rule="evenodd" d="M100 19L34 19L34 11L100 11L100 19Z" fill="url(#paint0_linear_678_1614)"/>
<path d="M44 15C44 23.2843 37.2843 30 29 30C20.7157 30 14 23.2843 14 15C14 6.71573 20.7157 0 29 0C37.2843 0 44 6.71573 44 15Z" fill="white"/>
<path fill-rule="evenodd" clip-rule="evenodd" d="M70 61L100 61L100 69L70 69L70 61Z" fill="white"/>
<path fill-rule="evenodd" clip-rule="evenodd" d="M0 61L66 61L66 69L0 69L0 61Z" fill="url(#paint1_linear_678_1614)"/>
<path d="M56 65C56 56.7157 62.7157 50 71 50C79.2843 50 86 56.7157 86 65C86 73.2843 79.2843 80 71 80C62.7157 80 56 73.2843 56 65Z" fill="white"/>
<defs>
<linearGradient id="paint0_linear_678_1614" x1="100" y1="15.0001" x2="34" y2="15" gradientUnits="userSpaceOnUse">
<stop stop-color="white"/>
<stop offset="1" stop-color="white" stop-opacity="0"/>
</linearGradient>
<linearGradient id="paint1_linear_678_1614" x1="8.82176e-08" y1="64.9999" x2="66" y2="65" gradientUnits="userSpaceOnUse">
<stop stop-color="white"/>
<stop offset="1" stop-color="white" stop-opacity="0"/>
</linearGradient>
</defs>
</svg>
