<svg width="100" height="100" viewBox="0 0 100 100" fill="none" xmlns="http://www.w3.org/2000/svg">
<path fill-rule="evenodd" clip-rule="evenodd" d="M67.6123 40.6483C68.6322 40.2204 69.7272 40 70.8333 40C71.9395 40 73.0345 40.2204 74.0544 40.6483C75.0685 41.0737 75.9881 41.6956 76.7604 42.4778L98.7824 64.5409C100.408 66.1696 100.406 68.8078 98.7769 70.4335C97.1482 72.0591 94.51 72.0567 92.8843 70.428L70.8531 48.3555L70.8333 48.3356L70.8136 48.3555L47.5937 71.6189C46.8213 72.401 45.9018 73.0229 44.8877 73.4483C43.8678 73.8762 42.7729 74.0966 41.6667 74.0966C40.5605 74.0966 39.4655 73.8762 38.4456 73.4483C37.4315 73.0229 36.512 72.401 35.7397 71.6189L25.0197 60.8789L25 60.859L24.9803 60.8789L7.11569 78.7769C5.49003 80.4056 2.85184 80.408 1.22314 78.7824C-0.405563 77.1567 -0.408025 74.5185 1.21764 72.8898L19.0729 55.0012C19.8452 54.219 20.7648 53.5971 21.779 53.1716C22.7989 52.7438 23.8938 52.5233 25 52.5233C26.1062 52.5233 27.2011 52.7438 28.221 53.1716C29.2352 53.597 30.1547 54.219 30.9271 55.0012L41.6469 65.7411L41.6667 65.761L41.6864 65.7411L64.9063 42.4778C65.6786 41.6956 66.5982 41.0737 67.6123 40.6483Z" fill="url(#paint0_linear_678_1578)"/>
<path d="M33.3327 35.8333C37.0146 35.8333 39.9993 32.8486 39.9993 29.1667C39.9993 25.4848 37.0146 22.5 33.3327 22.5C29.6508 22.5 26.666 25.4848 26.666 29.1667C26.666 32.8486 29.6508 35.8333 33.3327 35.8333Z" fill="white"/>
<path fill-rule="evenodd" clip-rule="evenodd" d="M91.6667 8.33333H8.33333L8.33333 91.6667H91.6667V8.33333ZM8.33333 0C3.73096 0 0 3.73096 0 8.33333V91.6667C0 96.269 3.73096 100 8.33333 100H91.6667C96.269 100 100 96.269 100 91.6667V8.33333C100 3.73096 96.269 0 91.6667 0H8.33333Z" fill="white"/>
<defs>
<linearGradient id="paint0_linear_678_1578" x1="65.8333" y1="72.5" x2="-1.25" y2="71.6667" gradientUnits="userSpaceOnUse">
<stop stop-color="white"/>
<stop offset="1" stop-color="white" stop-opacity="0"/>
</linearGradient>
</defs>
</svg>
