<svg width="26" height="24" viewBox="0 0 26 24" fill="none" xmlns="http://www.w3.org/2000/svg">
<path d="M0 24H4.72727L4.72727 9.6H0L0 24ZM26 10.8C26 9.474 24.9423 8.4 23.6364 8.4L16.1732 8.4L17.3018 2.916C17.3255 2.796 17.3432 2.67 17.3432 2.538C17.3432 2.04 17.1423 1.59 16.8232 1.266L15.5645 0L7.78227 7.902C7.35682 8.34 7.09091 8.94 7.09091 9.6L7.09091 21.6C7.09091 22.926 8.14864 24 9.45455 24L20.0909 24C21.0718 24 21.9109 23.394 22.2655 22.536L25.8286 14.076C25.935 13.8 26 13.506 26 13.2V10.902L25.9882 10.89L26 10.8Z" fill="#C4C4C4"/>
</svg>
