<svg width="100" height="101" viewBox="0 0 100 101" fill="none" xmlns="http://www.w3.org/2000/svg">
<path fill-rule="evenodd" clip-rule="evenodd" d="M92 8.00195H60V0.00195312H92C96.4183 0.00195312 100 3.58368 100 8.00195V40.002H92V8.00195Z" fill="url(#paint0_linear_678_4259)"/>
<path fill-rule="evenodd" clip-rule="evenodd" d="M8 92L40 92L40 100L8 100C3.58172 100 -3.50157e-06 96.4183 -3.11532e-06 92L-3.17787e-07 60L8 60L8 92Z" fill="url(#paint1_linear_678_4259)"/>
<path fill-rule="evenodd" clip-rule="evenodd" d="M8 8L8 24L0 24L-6.99382e-07 8C-8.92511e-07 3.58172 3.58172 -1.56562e-07 8 -3.49691e-07L24 -1.04907e-06L24 8L8 8Z" fill="url(#paint2_linear_678_4259)"/>
<path fill-rule="evenodd" clip-rule="evenodd" d="M92 92.002L92 76.002L100 76.002L100 92.002C100 96.4202 96.4183 100.002 92 100.002L76 100.002L76 92.002L92 92.002Z" fill="url(#paint3_linear_678_4259)"/>
<defs>
<linearGradient id="paint0_linear_678_4259" x1="80" y1="0.00195312" x2="80" y2="40.002" gradientUnits="userSpaceOnUse">
<stop stop-color="white"/>
<stop offset="1" stop-color="white" stop-opacity="0.4"/>
</linearGradient>
<linearGradient id="paint1_linear_678_4259" x1="20" y1="100" x2="20" y2="60" gradientUnits="userSpaceOnUse">
<stop stop-color="white"/>
<stop offset="1" stop-color="white" stop-opacity="0.4"/>
</linearGradient>
<linearGradient id="paint2_linear_678_4259" x1="-5.24537e-07" y1="12" x2="24" y2="12" gradientUnits="userSpaceOnUse">
<stop stop-color="white"/>
<stop offset="1" stop-color="white" stop-opacity="0.4"/>
</linearGradient>
<linearGradient id="paint3_linear_678_4259" x1="100" y1="88.002" x2="76" y2="88.002" gradientUnits="userSpaceOnUse">
<stop stop-color="white"/>
<stop offset="1" stop-color="white" stop-opacity="0.4"/>
</linearGradient>
</defs>
</svg>
