<svg width="100" height="100" viewBox="0 0 100 100" fill="none" xmlns="http://www.w3.org/2000/svg">
<path fill-rule="evenodd" clip-rule="evenodd" d="M92 8H8L8 92H92V8ZM8 0C3.58172 0 0 3.58172 0 8V92C0 96.4183 3.58172 100 8 100H92C96.4183 100 100 96.4183 100 92V8C100 3.58172 96.4183 0 92 0H8Z" fill="white"/>
<rect x="24" y="47" width="8" height="28" fill="url(#paint0_linear_678_1631)"/>
<rect x="46" y="31" width="8" height="44" fill="url(#paint1_linear_678_1631)"/>
<rect x="68" y="59" width="8" height="16" fill="url(#paint2_linear_678_1631)"/>
<defs>
<linearGradient id="paint0_linear_678_1631" x1="28" y1="47" x2="28" y2="75" gradientUnits="userSpaceOnUse">
<stop stop-color="white"/>
<stop offset="1" stop-color="white" stop-opacity="0"/>
</linearGradient>
<linearGradient id="paint1_linear_678_1631" x1="50" y1="31" x2="50" y2="75" gradientUnits="userSpaceOnUse">
<stop stop-color="white"/>
<stop offset="1" stop-color="white" stop-opacity="0"/>
</linearGradient>
<linearGradient id="paint2_linear_678_1631" x1="72" y1="59" x2="72" y2="75" gradientUnits="userSpaceOnUse">
<stop stop-color="white"/>
<stop offset="1" stop-color="white" stop-opacity="0"/>
</linearGradient>
</defs>
</svg>
