<svg width="100" height="70" viewBox="0 0 100 70" fill="none" xmlns="http://www.w3.org/2000/svg">
<path fill-rule="evenodd" clip-rule="evenodd" d="M32 20C32 26.6274 26.6274 32 20 32C13.3726 32 8 26.6274 8 20C8 13.3726 13.3726 8 20 8C26.6274 8 32 13.3726 32 20ZM39.5999 24C37.7468 33.129 29.6758 40 20 40C8.9543 40 0 31.0457 0 20C0 8.9543 8.9543 0 20 0C29.6758 0 37.7468 6.87104 39.5999 16H45C52.732 16 59 22.268 59 30V45C59 48.3137 61.6863 51 65 51H75V59H65C57.268 59 51 52.732 51 45V30C51 26.6863 48.3137 24 45 24H39.5999Z" fill="url(#paint0_linear_678_1603)"/>
<circle cx="85" cy="55" r="15" fill="white"/>
<defs>
<linearGradient id="paint0_linear_678_1603" x1="18.5" y1="20" x2="142.5" y2="54.5" gradientUnits="userSpaceOnUse">
<stop stop-color="white"/>
<stop offset="1" stop-color="white" stop-opacity="0"/>
</linearGradient>
</defs>
</svg>
