<svg width="2266" height="1417" viewBox="0 0 2266 1417" fill="none" xmlns="http://www.w3.org/2000/svg">
<path fill-rule="evenodd" clip-rule="evenodd" d="M113.372 0.72168L17.3301 22.1499H17.3224H0.191794V22.1516V22.6499V22.6516H15.0791L0.13723 25.9933L0.246358 26.4813L17.37 22.6516H17.3776H139.235L38.0171 48.0599L37.9844 48.0681H0.191794V48.0689V48.5681V48.5689H36.0415L0.130876 57.5913L0.252712 58.0762L38.0935 48.5689H173.058L63.551 79.9891L63.5313 79.9948H0.191794V79.9961V80.4948V80.4961H61.8257L0.122838 98.202L0.26075 98.6826L63.6384 80.4961H214.749L139.998 105.521L95.8236 120.303H95.8187H0.191794V120.305V120.803V120.805H94.3199L0.112445 152.336L0.271143 152.81L95.8941 120.805H267.354L137.834 172.831H0.191794V172.832V173.331V173.332H136.589L0.0986037 228.162L0.284984 228.626L137.93 173.331L335.758 173.332L194.833 244.091H0.191794V244.092V244.591V244.592H193.838L0.0796009 341.893L0.303987 342.34L194.952 244.592H428.482L360.795 289.914L276.582 346.287H276.582L276.56 346.302H276.559H0.191794V346.302V346.802V346.802H275.812L138.47 438.758L39.2768 505.161H39.2762H0.191794V505.161V505.661V505.661H38.5287L0.0527147 531.42L0.330873 531.836L39.427 505.662H403.145L129.838 780.137L124.081 785.919H124.08H0.191794V785.92V786.419V786.42H123.582L0.0146484 910.504L0.368939 910.857L124.287 786.42H124.288H627.957L314.352 1416.29L314.799 1416.51L628.516 786.42H1132.29L1132.29 1416.4H1132.79L1132.79 786.42H1636.56L1950.28 1416.51L1950.73 1416.29L1637.14 786.42H2140.79L2264.71 910.857L2265.06 910.504L2141.5 786.42H2141.51H2264.89V785.92H2141.02L1883.43 527.251L1861.93 505.662H2225.65L2264.75 531.836L2265.03 531.42L2226.55 505.661H2264.89V505.161H2264.89V505.161H2225.8L2215.96 498.571L1989.28 346.802L2264.89 346.802L2264.89 346.302H1988.54L1988.51 346.287L1836.6 244.591L2070.13 244.592L2264.78 342.34L2265 341.893L2071.24 244.591L2264.89 244.592L2264.89 244.091H2070.25L1929.32 173.332H2127.15L2264.79 228.626L2264.98 228.162L2128.49 173.331L2264.89 173.332L2264.89 172.831H2127.25L1997.74 120.805H2169.19L2264.81 152.81L2264.97 152.336L2170.76 120.805L2264.89 120.805L2264.89 120.303H2169.26H2169.26L2167.69 119.779L2050.35 80.4961H2201.44L2264.82 98.6826L2264.96 98.202L2203.25 80.4961H2264.89L2264.89 79.9948H2201.56L2201.54 79.9891L2092.04 48.5689H2226.98L2264.83 58.0762L2264.95 57.5913L2229.04 48.5689L2264.89 48.5681V48.0681H2227.11L2227.08 48.0599L2127.01 22.9412L2125.86 22.6516H2247.7H2247.71L2264.83 26.4813L2264.94 25.9933L2250.01 22.6516H2264.89V22.1516L2247.76 22.1499H2247.75L2151.72 0.72168H2151.71L2151.6 1.20966H2151.61L2245.46 22.1485L2189.98 22.1499H2123.85L2038.49 0.723175L2038.37 1.20816L2121.8 22.1499H1999.95H1999.95L1925.27 0.725372L1925.13 1.20596L1998.13 22.1499H1876.05H1876.04L1812.04 0.728607L1811.88 1.20273L1874.46 22.1499H1752.15L1698.82 0.733673L1698.64 1.19766L1750.81 22.1499H1628.25H1628.25L1585.61 0.742249L1585.38 1.18909L1627.13 22.1499H1504.36H1504.35L1472.38 0.757904L1472.11 1.17343L1503.45 22.1499H1380.47H1380.47L1359.19 0.789215L1358.83 1.14212L1379.76 22.1499H1256.61L1246 0.854187L1245.55 1.07715L1256.05 22.1499H1132.79V0.965668H1132.79H1132.29H1132.29V22.1499H1009.05L1019.53 1.077H1019.53L1019.08 0.85434H1019.08L1008.49 22.1499H1008.49H885.332L906.248 1.14206L905.894 0.789276L905.893 0.789978L905.893 0.789276L884.626 22.1499H761.642L792.976 1.1734L792.697 0.757935L792.696 0.75882L792.696 0.757935L760.741 22.1499H637.958L679.712 1.18909H679.713L679.489 0.742249H679.488L636.846 22.1499H636.843H514.286L566.46 1.19766H566.461L566.275 0.733673H566.273L512.946 22.1499H512.941H390.632L453.213 1.20273L453.054 0.728607L453.052 0.729156L453.052 0.728607L389.055 22.1499H389.05H266.961L339.966 1.20596H339.967L339.829 0.725372H339.828L265.15 22.1499H265.142H143.295L226.723 1.20816H226.724L226.602 0.723175H226.602L141.24 22.1499H141.232H19.6273L113.481 1.20966H113.482L113.373 0.72168H113.372ZM2140.29 785.92L1861.23 505.662H1861.23H1497.34L1636.89 785.919L2140.29 785.92ZM1636.33 785.92L1636.31 785.919L1132.79 785.92L1132.79 505.662H1132.79H1496.78L1636.33 785.92ZM1132.29 785.92L1132.29 505.662H768.301H768.299H768.298L628.766 785.919L1132.29 785.92ZM767.739 505.662L628.207 785.919H124.786L129.943 780.741L403.866 505.662H403.868H767.739ZM2224.9 505.161L2214.18 497.978L1988.35 346.802L1988.32 346.787H1703.74L1847.17 490.839L1861.43 505.161H1861.44H2224.9ZM1860.73 505.161L1703.03 346.787L1418.25 346.786L1497.09 505.161H1860.73ZM1132.79 505.161H1496.53L1417.69 346.787L1132.79 346.786V505.161ZM1132.29 346.787V505.161H768.55L847.408 346.787H1132.29ZM767.992 505.161L846.85 346.787H562.069L404.369 505.161H767.989H767.992ZM403.661 505.161H403.659H40.1919L140.215 438.192L276.734 346.802L276.756 346.787H561.36L403.661 505.161ZM1987.58 346.286L1840.52 247.82L1835.7 244.592H1601.97L1703.24 346.286H1987.58ZM1601.26 244.592H1367.36L1418 346.286H1702.53L1601.26 244.592ZM1366.8 244.592L1417.44 346.286H1132.79L1132.79 244.591L1366.8 244.592ZM1132.29 244.592H898.285L847.657 346.286H1132.29V244.592ZM847.096 346.286L897.724 244.592H663.822L562.566 346.286H847.096ZM663.116 244.592H429.398L361.036 290.354L277.504 346.286H561.86L663.116 244.592ZM1928.21 173.332L2069.13 244.091H1835.85L1730.16 173.331L1928.21 173.332ZM1729.26 173.332L1531.01 173.331L1592.09 234.679L1601.47 244.091H1834.95L1729.26 173.332ZM1530.3 173.332L1600.76 244.091H1367.11L1331.87 173.331L1530.3 173.332ZM1331.32 173.332L1132.79 173.331V244.091H1366.55L1331.32 173.332ZM1132.29 244.091V173.332L933.781 173.331L898.534 244.091H1132.29ZM734.092 173.332L663.614 244.091H430.145L535.839 173.332H734.092ZM897.974 244.091H664.319L734.797 173.332H933.221L897.974 244.091ZM534.939 173.332H336.889L195.964 244.091H429.245L534.939 173.332ZM1928.33 172.831H2125.91L1996.39 120.805H1996.38H1824.73L1928.33 172.831ZM1995.15 120.303H1995.13H1823.72H1823.72L1744.42 80.4807H1896.03L1995.15 120.303ZM1996.49 120.303H1996.49L1897.37 80.4807H2048.68L2048.69 80.4832L2167.68 120.303H1996.49ZM1823.61 120.805H1823.61H1651.71L1729.41 172.831H1927.21L1823.61 120.805ZM1650.82 120.805L1728.51 172.831H1530.51L1478.72 120.805H1650.81H1650.82ZM1650.96 120.303H1650.96L1591.48 80.4807H1743.3L1822.61 120.303H1650.96ZM1650.06 120.303L1590.58 80.4807H1438.56L1478.21 120.303H1478.22H1650.06ZM1478.01 120.805H1305.74L1331.63 172.831H1529.8L1478.01 120.805H1478.01ZM1305.49 120.303H1305.49L1285.65 80.4807H1437.85L1477.51 120.303H1305.49ZM1305.18 120.805H1305.18L1331.07 172.831H1132.79V120.805H1132.79H1305.18ZM1304.93 120.303L1285.09 80.4807H1132.79V120.303H1304.93ZM1132.29 120.303V80.4807H980.002L960.168 120.303H1132.29ZM933.468 172.831L959.357 120.805H787.089L735.296 172.831H933.468ZM959.61 120.303H959.606H787.591L827.242 80.4807H979.444L959.61 120.303ZM1132.29 172.831H934.029L959.919 120.805H1132.29V172.831ZM786.883 120.303L826.534 80.4807H674.502L615.032 120.303H786.883ZM734.59 172.831L786.383 120.805H614.284H614.282L536.585 172.831H734.59ZM613.385 120.805L535.687 172.831H337.886L441.487 120.805H441.491H613.385ZM614.135 120.303H614.133H442.49L521.792 80.4807H673.604L614.135 120.303ZM441.377 120.303L520.679 80.4807H369.073L269.953 120.303H441.373H441.377ZM440.373 120.805H268.701H268.698L139.192 172.831H336.772L440.373 120.805ZM268.61 120.303H268.606H97.4159L140.014 106.042L216.392 80.4832L216.4 80.4807H367.73L268.61 120.303ZM2090.14 48.5592L2090.12 48.5535H1954.94L2048.81 79.9794H2199.64L2090.14 48.5592ZM1953.36 48.5535H1817.88L1896.12 79.9794H2047.23L1953.36 48.5535ZM1816.54 48.5535L1894.78 79.9794H1743.42L1680.83 48.5524L1816.54 48.5535ZM1679.72 48.5535L1543.79 48.5524L1590.73 79.9794H1742.31L1679.72 48.5535ZM1542.89 48.5535L1589.83 79.9794H1438.06L1406.76 48.5535H1542.89ZM1406.05 48.5535L1269.75 48.5524L1285.4 79.9794H1437.36L1406.05 48.5535ZM1269.19 48.5535L1284.85 79.9794H1132.79V48.5535H1269.19ZM1132.29 48.5535H995.901L980.25 79.9794H1132.29V48.5535ZM995.343 48.5535L979.692 79.9794H827.739L859.041 48.5535H995.343ZM858.336 48.5535H722.204L675.251 79.9794H827.034L858.336 48.5535ZM721.306 48.5535L674.353 79.9794H522.79L585.378 48.5535H721.306ZM447.214 48.5535L368.974 79.9794H217.863L311.738 48.5535H447.214ZM521.672 79.9794H370.315L448.555 48.5535H584.261L521.672 79.9794ZM310.164 48.5535H174.961L174.941 48.5592L65.4346 79.9794H216.289L310.164 48.5535ZM2224.93 48.0524L2126.94 23.4377L2123.81 22.6516H2123.8H2001.7L2090.24 48.0524H2224.93ZM1999.88 22.6516H1877.55L1953.44 48.0524H2088.43L1999.89 22.6516H1999.88ZM1875.97 22.6516L1951.86 48.0524H1816.64L1753.4 22.6516H1875.96H1875.97ZM1752.06 22.6516H1752.06H1629.25L1679.84 48.0524H1815.29L1752.06 22.6516ZM1628.14 22.6516L1678.72 48.0524H1543.05L1505.11 22.6516H1628.13H1628.14ZM1504.21 22.6516H1504.2H1380.97L1406.26 48.0524H1542.15L1504.21 22.6516ZM1380.27 22.6516L1405.56 48.0524H1269.51L1256.86 22.6516H1380.26H1380.27ZM1268.95 48.0524L1256.3 22.6516H1132.79H1132.79L1132.79 48.0524H1268.95ZM1008.8 22.6516H1132.29L1132.29 48.0524H996.151L1008.8 22.6516ZM1008.24 22.6516H884.834H884.832L859.54 48.0524H995.59L1008.24 22.6516ZM884.127 22.6516L858.834 48.0524H722.951L760.889 22.6516H760.89H884.127ZM759.991 22.6516H636.961H636.959L586.373 48.0524H722.051L759.991 22.6516ZM635.846 22.6516L585.259 48.0524H449.801L513.033 22.6516H513.033H513.039H635.846ZM511.691 22.6516H389.132H389.127L313.233 48.0524H448.459L511.691 22.6516ZM387.551 22.6516L311.657 48.0524H176.666L265.206 22.6516H265.207H265.214H387.551ZM263.393 22.6516H141.295H141.288L40.1469 48.0524H174.852L263.393 22.6516Z" fill="url(#paint0_diamond_148_9834)"/>
<path d="M666.74 241.354L470.152 437.942" stroke="url(#paint1_linear_148_9834)" stroke-width="0.5"/>
<path d="M1706.3 158L1873.01 269.662" stroke="url(#paint2_linear_148_9834)" stroke-width="0.5"/>
<path d="M1350.08 210.686L1431.86 375.033" stroke="url(#paint3_linear_148_9834)" stroke-width="0.5"/>
<defs>
<radialGradient id="paint0_diamond_148_9834" cx="0" cy="0" r="1" gradientUnits="userSpaceOnUse" gradientTransform="translate(1132.54 0.721611) rotate(90) scale(1432.45 2291.7)">
<stop stop-color="#007AFC" stop-opacity="0.2"/>
<stop offset="1" stop-color="#007AFC" stop-opacity="0"/>
</radialGradient>
<linearGradient id="paint1_linear_148_9834" x1="568.446" y1="241.354" x2="568.446" y2="437.942" gradientUnits="userSpaceOnUse">
<stop stop-color="#007AFC"/>
<stop offset="1" stop-color="#007AFC" stop-opacity="0"/>
</linearGradient>
<linearGradient id="paint2_linear_148_9834" x1="1789.65" y1="158" x2="1789.65" y2="269.662" gradientUnits="userSpaceOnUse">
<stop stop-color="#007AFC"/>
<stop offset="1" stop-color="#007AFC" stop-opacity="0"/>
</linearGradient>
<linearGradient id="paint3_linear_148_9834" x1="1418.49" y1="210.686" x2="1424.78" y2="371.101" gradientUnits="userSpaceOnUse">
<stop stop-color="#007AFC"/>
<stop offset="1" stop-color="#007AFC" stop-opacity="0"/>
</linearGradient>
</defs>
</svg>
