<svg width="1440" height="794" viewBox="0 0 1440 794" fill="none" xmlns="http://www.w3.org/2000/svg">
<mask id="mask0_678_707" style="mask-type:alpha" maskUnits="userSpaceOnUse" x="0" y="0" width="1440" height="794">
<rect width="1440" height="794" fill="#F8F8F8"/>
</mask>
<g mask="url(#mask0_678_707)">
<path fill-rule="evenodd" clip-rule="evenodd" d="M71.945 -0.355469L10.8868 13.2674H10.8818L-0.000588894 13.2674V13.2685L-0.000588894 13.7674V13.7685L8.641 13.7685H8.64125L-0.0551529 15.7135L0.0539751 16.2014L10.9321 13.7685H10.937L87.6722 13.7685L24.0284 29.745L24.0185 29.7474L-0.000588894 29.7474V29.7479L-0.000588894 30.2474V30.2479L22.0584 30.2479L-0.0615071 35.8054L0.0603293 36.2904L24.1103 30.2479L109.268 30.2479L40.2605 50.0478L40.2603 50.0479L-0.000588894 50.0479V50.0487L-0.000588894 50.5479V50.5487L38.5418 50.5487L-0.0695446 61.6284L0.0683669 62.109L40.3546 50.5487L135.866 50.5487L87.7878 66.6437L60.7919 75.6776H60.7887L-0.000588894 75.6776V75.6787L-0.000588894 76.1776V76.1787L59.2916 76.1787L-0.0799381 96.0505L0.0787603 96.5247L60.8662 76.1789H169.403L87.5011 109.078L-0.000588894 109.078V109.078L-0.000588894 109.578V109.578L86.2564 109.578L-0.0937791 144.266L0.0926013 144.73L87.5978 109.578L212.984 109.578L123.74 154.388L-0.000588894 154.388V154.389L-0.000588894 154.888V154.889L122.745 154.889L-0.112782 216.585L0.111604 217.032L123.859 154.889H272.027L229.877 183.111L175.714 219.369H175.714L175.7 219.379H175.699L-0.000588894 219.379V219.379L-0.000588894 219.879V219.879L174.952 219.879L88.4676 277.784L24.8238 320.389H24.8235H-0.000588894V320.389L-0.000588894 320.889V320.889H24.0762L-0.139668 337.101L0.13849 337.516L24.9747 320.889L255.997 320.889L81.9163 495.714L78.736 498.908H78.7356H-0.000588894V498.909L-0.000588894 499.408V499.409H78.2375L-0.177734 578.152L0.176557 578.504L78.9428 499.409H78.9433L399.016 499.409L199.676 899.777L200.123 899.999L399.574 499.409L719.749 499.409L719.75 899.888H720.25L720.249 499.409H1040.42L1237.63 895.487L1239.88 899.999L1240.32 899.777L1040.99 499.409L1361.06 499.409L1439.82 578.504L1440.18 578.152L1361.76 499.409H1361.77H1440V498.909H1361.27L1194.76 331.69L1184 320.889L1415.02 320.889L1439.86 337.516L1440.14 337.101L1415.92 320.889L1440 320.889V320.389L1440 320.389L1415.18 320.389L1411.34 317.823L1265.06 219.879L1440 219.879L1440 219.379L1264.31 219.379L1264.3 219.369L1167.97 154.888L1316.14 154.889L1439.89 217.032L1440.11 216.585L1317.26 154.888L1440 154.889L1440 154.388H1316.26L1227.02 109.578L1352.4 109.578L1439.91 144.73L1440.09 144.266L1353.74 109.578L1440 109.578L1440 109.078H1352.5L1270.61 76.1789L1379.13 76.1789L1439.92 96.5247L1440.08 96.0505L1380.71 76.1789L1440 76.1787L1440 76.1776L1440 75.6787L1440 75.6776H1379.21H1379.21L1378.02 75.2802L1304.15 50.5487L1399.64 50.5487L1439.93 62.109L1440.07 61.6284L1401.46 50.5487L1440 50.5479V50.0479L1399.75 50.0478L1330.74 30.2479L1415.89 30.2479L1439.94 36.2904L1440.06 35.8054L1417.94 30.2479L1440 30.2474V29.7474L1415.99 29.7474L1415.98 29.745L1352.34 13.7685L1429.06 13.7685H1429.07L1439.95 16.2014L1440.05 15.7135L1431.36 13.7685H1431.37H1440L1440 13.7674L1440 13.2685L1440 13.2674H1429.12L1368.06 -0.355469L1368.06 -0.353393L1368.05 -0.355469L1367.94 0.132532L1426.82 13.2674L1350.34 13.2674L1296.07 -0.353946L1295.95 0.13101L1348.28 13.2674L1271.56 13.2674H1271.55L1224.08 -0.351775L1223.94 0.128838L1269.74 13.2674L1192.77 13.2674H1192.77L1152.09 -0.34854L1151.93 0.125604L1191.19 13.2674L1114 13.2674H1113.99L1080.1 -0.34346L1079.92 0.120524L1112.65 13.2674L1035.22 13.2674H1035.22L1008.12 -0.334894L1007.9 0.111957L1034.1 13.2674L956.445 13.2674H956.444L936.138 -0.319245L935.86 0.0963088L955.545 13.2674L877.684 13.2674H877.682L864.177 -0.28792L863.822 0.0649835L876.976 13.2674L798.944 13.2674L792.223 -0.222944L791.776 7.33137e-06L798.385 13.2674L720.25 13.2674V-0.111468H720.249L719.75 -0.111468H719.749V13.2674L641.624 13.2674L648.223 -0.0001252L647.775 -0.222811L641.065 13.2674H641.064L563.032 13.2674L576.176 0.0649179L575.823 -0.287854L562.327 13.2674H562.327L484.465 13.2674L504.139 0.0962772L503.861 -0.319213L503.86 -0.318734L503.86 -0.319213L483.565 13.2674H483.564L405.906 13.2674L432.111 0.111957H432.112L431.888 -0.334894H431.887L404.793 13.2674H404.791L327.356 13.2674L360.093 0.120524H360.094L359.908 -0.34346H359.907L326.015 13.2674H326.012L248.818 13.2674L288.079 0.125604H288.08L287.921 -0.34854H287.92L247.242 13.2674H247.239L170.272 13.2674L216.07 0.128838L215.932 -0.351775L215.931 -0.351528L215.931 -0.351775L168.458 13.2674H168.454L91.7278 13.2674L144.061 0.13101L143.94 -0.353946L143.939 -0.353704L143.939 -0.353946L89.673 13.2674H89.6684L13.183 13.2674L72.0539 0.132533H72.054L71.9451 -0.355469H71.945ZM1360.56 498.909L1183.3 320.889L952.105 320.889L1040.74 498.908L1360.56 498.909ZM1040.19 498.909L1040.18 498.908H720.25L720.249 320.889H720.25H951.545L1040.19 498.909ZM719.749 498.908L719.749 320.889L488.456 320.889H488.454L399.823 498.908L719.749 498.908ZM487.895 320.889L399.265 498.908L79.4412 498.908L81.7587 496.581L256.713 320.889H256.713H487.895ZM1414.28 320.389H1183.5L1150.16 286.903L1083.41 219.869H1264.12L1264.13 219.879L1410.42 317.806L1414.28 320.389ZM1182.8 320.389L951.854 320.389L901.813 219.869L1082.71 219.869L1182.8 320.389ZM720.25 320.389L951.295 320.389L901.255 219.869L720.25 219.869V320.389ZM719.749 219.869V320.389L488.704 320.389L538.755 219.869L719.749 219.869ZM488.146 320.389L538.197 219.869H357.305L257.213 320.389H488.145H488.146ZM256.506 320.389H256.505L25.733 320.389L89.4672 277.716L175.865 219.879L175.88 219.869L356.598 219.869L256.506 320.389ZM1263.37 219.369L1170.47 157.164L1167.07 154.889L1018.7 154.889L1082.91 219.369H1263.37ZM1018 154.889H869.454L901.565 219.369L1082.21 219.369L1018 154.889ZM868.895 154.889L901.006 219.369L720.249 219.369V154.889L868.895 154.889ZM538.444 219.369L570.545 154.889H422.004L357.802 219.369H538.444ZM719.749 219.369L539.004 219.369L571.105 154.889L719.749 154.889V219.369ZM421.299 154.889L272.936 154.889L230.185 183.507L176.627 219.369L357.097 219.369L421.299 154.889ZM1225.9 109.578L1315.15 154.388L1167.23 154.388L1100.29 109.578L1225.9 109.578ZM1099.39 109.578L973.583 109.578L1007.81 143.949L1018.2 154.388L1166.33 154.388L1099.39 109.578ZM972.876 109.578L1017.5 154.388H869.204L846.893 109.578L972.876 109.578ZM846.335 109.578L720.251 109.578V154.388L868.646 154.388L846.335 109.578ZM719.749 154.388V109.578L593.675 109.578L571.354 154.388L719.749 154.388ZM593.116 109.578L467.135 109.578L422.503 154.388H570.795L593.116 109.578ZM421.796 154.388L466.428 109.578L340.617 109.578L273.684 154.388L421.796 154.388ZM339.717 109.578L214.109 109.578L124.865 154.388H272.784L339.717 109.578ZM1351.16 109.078L1269.26 76.1789L1160.51 76.1789L1226.02 109.078L1351.16 109.078ZM1268.01 75.6776H1268.01L1159.51 75.6776H1159.51L1109.45 50.5381L1205.44 50.5389L1268.01 75.6776ZM1269.36 75.6776H1269.35L1206.79 50.5389L1302.51 50.5389L1377.63 75.6776L1269.36 75.6776ZM1159.39 76.1789L1050.41 76.1789L1099.55 109.078L1224.9 109.078L1159.39 76.1789H1159.39ZM1049.52 76.1789L1098.65 109.078L973.084 109.078L940.333 76.1789L1049.51 76.1789H1049.52ZM1049.67 75.6776H1049.66L1012.11 50.5389L1108.33 50.5389L1158.39 75.6776L1049.67 75.6776ZM1048.77 75.6776L1011.21 50.5389L914.802 50.5389L939.833 75.6776H939.834L1048.77 75.6776ZM939.627 76.1789L830.275 76.1789L846.645 109.078L972.379 109.078L939.628 76.1789H939.627ZM830.024 75.6776H830.023L817.504 50.5389L914.095 50.5389L939.126 75.6776L830.024 75.6776ZM720.249 76.1789H720.25L829.714 76.1789H829.715L846.086 109.078L720.249 109.078V76.1789ZM829.465 75.6776L816.945 50.5389L720.25 50.5389V75.6776L829.465 75.6776ZM719.749 75.6776V50.5389L623.065 50.5389L610.544 75.6776L719.749 75.6776ZM593.364 109.078L609.735 76.1789L500.383 76.1789L467.632 109.078L593.364 109.078ZM609.987 75.6776H609.984L500.884 75.6776L525.914 50.5389L622.507 50.5389L609.987 75.6776ZM719.749 109.078L593.924 109.078L610.295 76.1789L719.749 76.1789V109.078ZM500.177 75.6776L525.208 50.5389L428.785 50.5389L391.244 75.6776L500.177 75.6776ZM466.927 109.078L499.677 76.1789L390.496 76.1789H390.494L341.363 109.078L466.927 109.078ZM389.596 76.1789L340.464 109.078L215.105 109.078L280.617 76.1789H280.62L389.596 76.1789ZM390.346 75.6776H390.344L281.618 75.6776L331.679 50.5389L427.887 50.5389L390.346 75.6776ZM280.504 75.6776L330.566 50.5389L234.569 50.5389L171.997 75.6776L280.501 75.6776H280.504ZM279.502 76.1789L170.748 76.1789H170.745H170.744L88.8529 109.078L213.991 109.078L279.502 76.1789ZM170.654 75.6776H170.652H62.3775L87.9674 67.1109L137.489 50.5389L233.226 50.5389L170.654 75.6776ZM1243.48 30.2381L1328.86 30.2382L1397.87 50.0381L1302.62 50.0381L1243.48 30.2381ZM1241.9 30.2381L1156.24 30.2381L1205.54 50.0381L1301.05 50.0381L1241.9 30.2381ZM1154.9 30.2381L1204.2 50.0381L1108.45 50.0381L1104.14 47.8733L1069.02 30.2381L1154.9 30.2381ZM1067.9 30.2381L981.793 30.2381L1011.37 50.0381L1107.33 50.0381L1067.9 30.2381ZM980.894 30.2381L1010.47 50.0381L914.304 50.0381L894.582 30.2381L980.894 30.2381ZM893.876 30.2381L807.393 30.2381L817.254 50.0381L913.598 50.0381L893.876 30.2381ZM806.835 30.2381L816.696 50.0381L720.249 50.0381V30.2381L806.835 30.2381ZM719.75 30.2381L633.174 30.2381L623.313 50.0381L719.75 50.0381V30.2381ZM632.616 30.2381L622.755 50.0381L526.412 50.0381L546.134 30.2381L632.616 30.2381ZM545.428 30.2381L459.116 30.2381L429.533 50.0381L525.706 50.0381L545.428 30.2381ZM458.218 30.2381L428.635 50.0381L332.676 50.0381L372.11 30.2381L458.218 30.2381ZM283.766 30.2381L234.471 50.0381L138.963 50.0381L198.11 30.2381L283.766 30.2381ZM331.56 50.0381L235.812 50.0381L285.107 30.2381L370.994 30.2381L331.56 50.0381ZM196.535 30.2381L111.139 30.2381L111.138 30.2382L42.1312 50.0381L137.389 50.0381L196.535 30.2381ZM1413.86 29.7374L1351.76 14.1391L1350.28 13.7685H1350.28L1273.3 13.7685L1328.96 29.7374L1413.86 29.7374ZM1271.48 13.7685L1194.27 13.7685L1241.98 29.7374L1327.15 29.7374L1271.49 13.7685H1271.48ZM1192.69 13.7685L1240.41 29.7374L1155 29.7374L1115.25 13.7685L1192.69 13.7685H1192.69ZM1113.9 13.7685L1036.22 13.7685L1068.02 29.7374L1153.66 29.7374L1113.9 13.7685H1113.9ZM1035.1 13.7685L1066.91 29.7374L981.047 29.7374L957.194 13.7685L1035.1 13.7685H1035.1ZM956.295 13.7685H956.293L878.183 13.7685L894.083 29.7374L980.147 29.7374L956.295 13.7685ZM877.478 13.7685L893.379 29.7374L807.145 29.7374L799.195 13.7685L877.476 13.7685H877.478ZM806.586 29.7374L798.635 13.7685L720.25 13.7685H720.249V29.7374L806.586 29.7374ZM640.815 13.7685L562.534 13.7685H562.533L546.632 29.7374L632.864 29.7374L640.815 13.7685ZM633.424 29.7374L641.374 13.7685L719.749 13.7685V29.7374L633.424 29.7374ZM561.827 13.7685L545.927 29.7374L459.863 29.7374L483.715 13.7685H483.715L561.827 13.7685ZM482.816 13.7685L404.909 13.7685H404.907L373.105 29.7374L458.964 29.7374L482.816 13.7685ZM403.794 13.7685L371.991 29.7374L286.353 29.7374L326.105 13.7685H326.106H326.109L403.794 13.7685ZM324.764 13.7685L247.32 13.7685H247.317H247.317L199.604 29.7374L285.011 29.7374L324.764 13.7685ZM245.742 13.7685L198.029 29.7374L112.858 29.7374L168.521 13.7685H168.521H168.526L245.742 13.7685ZM166.707 13.7685L89.7305 13.7685H89.726L26.141 29.7374L111.044 29.7374L166.707 13.7685Z" fill="url(#paint0_diamond_678_707)"/>
<path d="M424 152.738L299 277.738" stroke="url(#paint1_linear_678_707)" stroke-width="0.5"/>
<path d="M1085 99.7383L1191 170.738" stroke="url(#paint2_linear_678_707)" stroke-width="0.5"/>
<path d="M858.5 133.238L910.5 237.738" stroke="url(#paint3_linear_678_707)" stroke-width="0.5"/>
</g>
<defs>
<radialGradient id="paint0_diamond_678_707" cx="0" cy="0" r="1" gradientUnits="userSpaceOnUse" gradientTransform="translate(720 -0.355512) rotate(90) scale(910.948 1457.3)">
<stop stop-color="#007AFC" stop-opacity="0.2"/>
<stop offset="1" stop-color="#007AFC" stop-opacity="0"/>
</radialGradient>
<linearGradient id="paint1_linear_678_707" x1="361.5" y1="152.738" x2="361.5" y2="277.738" gradientUnits="userSpaceOnUse">
<stop stop-color="#007AFC"/>
<stop offset="1" stop-color="#007AFC" stop-opacity="0"/>
</linearGradient>
<linearGradient id="paint2_linear_678_707" x1="1138" y1="99.7383" x2="1138" y2="170.738" gradientUnits="userSpaceOnUse">
<stop stop-color="#007AFC"/>
<stop offset="1" stop-color="#007AFC" stop-opacity="0"/>
</linearGradient>
<linearGradient id="paint3_linear_678_707" x1="902" y1="133.238" x2="906" y2="235.238" gradientUnits="userSpaceOnUse">
<stop stop-color="#007AFC"/>
<stop offset="1" stop-color="#007AFC" stop-opacity="0"/>
</linearGradient>
</defs>
</svg>
