<svg width="390" height="376" viewBox="0 0 390 376" fill="none" xmlns="http://www.w3.org/2000/svg">
<path fill-rule="evenodd" clip-rule="evenodd" d="M-104.823 5.66978V5.67066V6.16978V6.17066H-102.548H-102.546L-104.877 6.69203L-104.768 7.17997L-100.255 6.17066H-100.251H-69.4924L-94.8377 12.5331H-104.823V12.5334V13.0331V13.0334H-96.8164L-104.884 15.0603L-104.762 15.5452L-94.7644 13.0334H-94.763L-94.7616 13.0331H-60.3512L-88.0747 20.9877H-104.823V20.9881V21.4877V21.4881H-89.8079L-104.892 25.8165L-104.754 26.2971L-87.9951 21.4881H-49.1267L-54.2891 23.2164L-79.5271 31.662H-79.5289H-104.823V31.6626V32.162V32.1626H-81.0247L-104.902 40.1545L-104.744 40.6286L-79.4559 32.1648H-35.0294L-37.2996 33.0767L-68.4081 45.5725H-104.823V45.5741V46.0725V46.0741H-69.6528L-104.916 60.2398L-104.73 60.7038L-68.3115 46.0741H-16.734L-53.3215 64.4449H-104.823V64.4452V64.9449V64.9452H-54.3172L-104.935 90.3645L-104.711 90.8113L-53.2031 64.9452H7.99172L-5.2628 73.8202L-31.6849 91.5077L-31.691 91.5116H-104.823V91.5124V92.0116V92.0124H-32.4387L-64.4985 113.478L-94.5276 133.58H-94.5284H-104.823V133.58V134.08V134.08H-95.2761L-104.962 140.565L-104.684 140.98L-94.3777 134.081H1.44404L-45.5469 181.273L-72.0919 207.93H-104.823V207.93V208.43V208.43H-72.5906H-72.59L-105 240.976L-104.646 241.329L-71.8844 208.43H-71.8835H61.1235L-21.7927 374.965H-21.7918L-21.3452 375.188H-21.3442L61.683 208.43H194.792V375.077H194.794H195.292H195.294V208.43H195.295H328.406L383.377 318.839L411.431 375.188H411.433L411.879 374.965H411.88L377.564 306.041L328.966 208.43H461.972L494.734 241.329L495.089 240.976L462.679 208.43H462.681H494.912V207.93H494.911V207.93H462.183L393.515 138.972L388.645 134.081H484.466H484.467L494.773 140.98L495.05 140.565L485.365 134.081L494.912 134.08V133.58H494.911V133.58H484.617L477.653 128.919L422.532 92.0124H494.91V92.0116H494.912V91.5116H421.783L421.778 91.5077H421.777L382.097 64.9452H443.29L494.798 90.8113H494.799L495.024 90.3645H495.022L444.406 64.9452H494.911L494.913 64.9449V64.4449H443.412L406.824 46.0741H458.401L494.818 60.7038L494.82 60.7038L495.006 60.2398H495.005L459.743 46.0741H494.912V45.5741L494.911 45.5725H458.497L425.123 32.1648H469.543H469.544L494.831 40.6286H494.832L494.991 40.1545H494.99L471.113 32.1626H494.91V32.162V31.6626V31.662H469.617H469.614L454.854 26.7225L439.218 21.4881H478.082L494.841 26.2971L494.979 25.8165L479.896 21.4881H494.911V20.9881H494.91V20.9877H478.168L450.444 13.0331H484.851L484.852 13.0334L494.849 15.5452L494.971 15.0603L486.905 13.0336L494.912 13.0334V12.5334H494.911V12.5331H484.928L460.407 6.37768L459.582 6.17066H490.341H490.345L494.856 7.17997L494.858 7.17997L494.967 6.69203H494.965L492.636 6.17066H492.641H494.912V5.67066H494.91V5.66978H490.396L464.984 0H464.98L464.871 0.488001H464.875L488.096 5.66978H457.587H457.585L435.004 0.00152288H435.002L434.88 0.486478H434.882L455.53 5.66978H424.777H424.774L405.024 0.00369422L404.886 0.484307L422.961 5.66978H391.968H391.965L375.048 0.00692898L374.889 0.481072L390.391 5.66978H359.165H359.163L345.075 0.0120089L344.889 0.475992L357.822 5.66978H326.362H326.361L315.108 0.0205751L315.107 0.0210768L315.106 0.0205751L314.882 0.467426L325.245 5.66978H293.564H293.562L285.143 0.0362238L284.865 0.451778L292.663 5.66978H260.777H260.776L255.195 0.067549L254.84 0.420452L260.07 5.66978H228.013L225.254 0.132525L225.253 0.133146L225.253 0.132525L224.805 0.355476L227.453 5.66978H195.294V0.244001H195.292H194.794H194.792V5.66978H162.638L165.281 0.355344L164.834 0.132658L164.833 0.133364L164.832 0.132658L162.078 5.66978H162.078H130.022L135.248 0.420387L134.894 0.0676147L134.893 0.0687057L134.892 0.0676147L129.314 5.66978H97.429L105.224 0.451746L104.946 0.0362553L96.5304 5.66978H96.5283H64.8474L75.2101 0.467426L74.9857 0.0205752L74.9844 0.0212665L74.984 0.0205752L63.7312 5.66978H63.7297H32.2696L45.2026 0.475992L45.0162 0.012009L30.9278 5.66978H30.9272H-0.299416L15.202 0.481072H15.2022L15.0435 0.00692897H15.0433L-1.87442 5.66978H-1.87628H-32.8699L-14.7949 0.484307H-14.7947L-14.9326 0.00369422H-14.9328L-34.6829 5.66978H-34.686H-65.4391L-44.7896 0.486478H-44.7893L-44.9111 0.0015229H-44.9113L-67.4926 5.66978H-67.4971H-98.0065L-74.7817 0.488001L-74.8905 0L-74.8914 0.000181608L-74.8914 0L-100.304 5.66978H-100.307H-104.823ZM328.158 207.93H328.156H195.295V134.081H291.387L328.158 207.93ZM328.718 207.93H461.474L405.163 151.378L387.938 134.081H387.938H291.947L328.718 207.93ZM194.792 207.93V134.081H98.6998L61.9329 207.93H194.792ZM98.14 134.081L61.3727 207.93H-71.3848L-45.0383 181.47L2.1523 134.081H2.15503H98.14ZM388.146 133.58H483.717L477.371 129.331L421.624 92.0124H421.621L421.615 92.0082H346.751L388.146 133.58ZM387.439 133.58L346.045 92.0082H346.043H271.003L291.698 133.58H387.439ZM195.295 133.58H195.293L195.293 92.0082H270.442L291.137 133.58H195.295ZM194.792 92.0082V133.58H98.9492L119.649 92.0082H119.649H194.792ZM1.94713 133.58H1.94538H-93.6239L-64.2335 113.902L-31.5346 92.0124H-31.5334L-31.5272 92.0082H43.3419L1.94713 133.58ZM2.6537 133.58H98.3899L119.089 92.0082H44.0485L2.6537 133.58ZM346.253 91.5077H346.251L319.798 64.9452H381.197L420.867 91.5077H346.253ZM345.546 91.5077L319.093 64.9452H257.524L270.752 91.5077H345.546ZM195.293 91.5077H270.192L256.964 64.9452H195.293V91.5077ZM194.792 64.9452V91.5077H119.899L133.123 64.9452H194.792ZM119.339 91.5077L132.563 64.9452H70.995L44.5469 91.5077H119.339H119.339ZM43.8408 91.5077H43.8403H-30.7797L-4.96143 74.2202L8.89395 64.9452H70.2888L43.8408 91.5077ZM405.709 46.0741L442.297 64.4449H381.351L353.91 46.0741H405.709ZM353.011 46.0741H301.007L319.301 64.4449H380.451L353.011 46.0741ZM194.792 64.4449V46.0741H142.523L133.372 64.4449H194.792ZM256.715 64.4449H195.295V46.0741H247.569L256.715 64.4449ZM70.7862 64.4449L89.084 46.0741H37.0832L9.64254 64.4449H70.7862ZM132.812 64.4449H71.4942L89.792 46.0741H141.963L132.812 64.4449ZM457.156 45.5725L423.776 32.1648H423.773H379.128L405.827 45.5725H457.156ZM423.871 31.662H423.863L398.536 21.4862H437.631L454.717 27.204L468.034 31.662H423.871ZM422.522 31.662L397.194 21.4862H397.193H357.857L378.121 31.662H378.126H422.522ZM378.013 32.1648H378.009H333.14L353.162 45.5725H404.712L378.013 32.1648ZM352.263 45.5725L332.24 32.1648H332.236H287.163L300.511 45.5725H352.263ZM332.389 31.662H332.384L317.184 21.4862H356.742L377.006 31.662H332.389ZM331.485 31.662L316.286 21.4862H316.285H276.527L286.659 31.662H286.663H331.485ZM286.457 32.1648H286.454H241.209L247.881 45.5725H299.804L286.457 32.1648ZM240.956 31.662H240.956L235.888 21.4862H275.82L285.953 31.662H240.956ZM195.293 45.5725L195.293 32.1648H240.647L247.32 45.5725H195.293ZM240.396 31.662L235.328 21.4862H195.293L195.293 31.662H240.396ZM194.792 31.662V21.4862H154.763L149.695 31.662H194.792ZM194.792 32.1648H149.444H149.442L142.77 45.5725H194.792V32.1648ZM149.135 31.662H149.134H104.139L114.271 21.4862H154.203L149.135 31.662ZM90.2878 45.5725L103.635 32.1648H103.637H148.883L142.211 45.5725H90.2878ZM103.432 31.662L113.565 21.4862H73.8027L58.6065 31.662H103.429H103.432ZM102.929 32.1648H57.8556H57.8512L37.8279 45.5725H89.5811L102.929 32.1648ZM57.707 31.662H57.7034H13.0863L33.3505 21.4862H72.9032L57.707 31.662ZM-14.6203 45.5725L12.0787 32.1648H12.0849H56.9518L36.9286 45.5725H-14.6203ZM11.9712 31.662L32.2355 21.4862H-7.10085L-32.4292 31.662H11.9646H11.9712ZM10.9633 32.1648H-33.6818H-33.688L-37.0877 33.5304L-67.0631 45.5725H-15.7356L10.9633 32.1648ZM-33.7715 31.662H-33.778H-77.9422L-54.1305 23.6905L-47.5433 21.4862H-8.44315L-33.7715 31.662ZM476.327 20.9838L448.603 13.0293L413.958 13.0292L437.719 20.9838H476.327ZM448.688 12.5292L482.845 12.5293L460.307 6.86818L457.529 6.17066H457.527H426.523L448.687 12.5293L448.688 12.5292ZM446.874 12.5293L424.71 6.17066H424.706H393.464L412.463 12.5293H446.874ZM412.382 13.0292L377.487 13.0293L397.291 20.9838H436.144L412.382 13.0292ZM395.949 20.9838L376.145 13.0293H376.144L341.019 13.0292L356.862 20.9838H395.949ZM376.242 12.5292H376.24L360.412 6.17066H391.887H391.889L410.888 12.5293L376.242 12.5292ZM374.899 12.5292L359.071 6.17066H359.07H359.069H327.359L340.022 12.5293L340.023 12.5292H374.899ZM339.904 13.0292L339.904 13.0293L304.557 13.0292L316.438 20.9838H355.747L339.904 13.0292ZM303.657 13.0293L315.538 20.9838H276.028L268.106 13.0293H303.657ZM338.908 12.5293H303.809L294.312 6.17066H326.244H326.245L338.908 12.5293ZM275.322 20.9838L267.399 13.0292H231.677L235.638 20.9838H275.322ZM267.607 12.5293H302.911L293.413 6.17066H293.411H261.276L267.607 12.5293ZM266.901 12.5292L231.429 12.5293L228.263 6.17066H260.569H260.57L266.901 12.5292ZM195.293 20.9838V13.0293H195.293L231.117 13.0292L235.079 20.9838H195.293ZM230.868 12.5293L227.703 6.17066H195.294H195.293V12.5293H230.868ZM194.792 12.5293V6.17066H162.389L159.223 12.5293H194.792ZM194.792 13.0293H158.974H158.973L155.012 20.9838H194.792V13.0293ZM122.692 13.0293H158.414L154.452 20.9838H114.769L122.692 13.0293ZM158.663 12.5293L158.663 12.5292H123.191L129.523 6.17066H129.523H161.829L158.663 12.5293ZM122.485 12.5292L128.816 6.17066H128.816H96.681H96.6789L87.1817 12.5292H122.485ZM73.65 20.9838L85.5348 13.0293H50.1889H50.1879L34.3455 20.9838H73.65ZM86.2823 12.5292H86.282H51.1848L63.8478 6.17066H63.8479H95.7795L86.2823 12.5292ZM114.063 20.9838H74.5497L86.4341 13.0293H121.986L114.063 20.9838ZM50.0693 12.5292H50.0696L62.7322 6.17066H31.0223H31.0217L15.1931 12.5292H50.0693ZM-7.19931 20.9838L12.6047 13.0293H-22.2896L-46.0512 20.9838H-7.19931ZM13.8511 12.5292H13.8497H-20.7957L-1.79745 6.17066H-1.79558H29.6797L13.8511 12.5292ZM33.2303 20.9838H-5.85707L13.9469 13.0293H13.9475H49.0726L33.2303 20.9838ZM-22.3718 12.5292L-3.37347 6.17066H-34.6156H-34.6188L-56.7828 12.5292H-22.3718ZM-23.8653 13.0293H-58.5157L-86.2389 20.9838H-47.6273L-23.8653 13.0293ZM-58.5969 12.5293H-92.7556L-67.4369 6.17066H-67.4343H-36.4326L-58.5969 12.5293ZM-15.6158 46.0741L-52.2034 64.4449H8.74237L36.1831 46.0741H-15.6158ZM257.275 64.4449L248.128 46.0741H300.301L318.595 64.4449H257.275Z" fill="url(#paint0_diamond_678_13744)"/>
<path d="M137.5 55L70 190.5" stroke="url(#paint1_linear_678_13744)" stroke-width="0.5"/>
<path d="M261 73L313 177.5" stroke="url(#paint2_linear_678_13744)" stroke-width="0.5"/>
<defs>
<radialGradient id="paint0_diamond_678_13744" cx="0" cy="0" r="1" gradientUnits="userSpaceOnUse" gradientTransform="translate(195.044 -1.81257e-05) rotate(90) scale(379.602 607.149)">
<stop stop-color="#007AFC" stop-opacity="0.2"/>
<stop offset="1" stop-color="#007AFC" stop-opacity="0"/>
</radialGradient>
<linearGradient id="paint1_linear_678_13744" x1="131.5" y1="64.5" x2="131.5" y2="189.5" gradientUnits="userSpaceOnUse">
<stop stop-color="#007AFC"/>
<stop offset="1" stop-color="#007AFC" stop-opacity="0"/>
</linearGradient>
<linearGradient id="paint2_linear_678_13744" x1="304.5" y1="73" x2="308.5" y2="175" gradientUnits="userSpaceOnUse">
<stop stop-color="#007AFC"/>
<stop offset="1" stop-color="#007AFC" stop-opacity="0"/>
</linearGradient>
</defs>
</svg>
